<?xml version="1.0" encoding="utf-8"?>
<!-- Generator: Adobe Illustrator 25.4.1, SVG Export Plug-In . SVG Version: 6.00 Build 0)  -->
<svg version="1.1" id="area_chart_graphics" xmlns="http://www.w3.org/2000/svg" xmlns:xlink="http://www.w3.org/1999/xlink"
	 x="0px" y="0px" width="820px" height="349.4px" viewBox="0 0 820 349.4" style="enable-background:new 0 0 820 349.4;"
	 xml:space="preserve">
<style type="text/css">
	.st0{display:none;fill:none;stroke:#333333;stroke-miterlimit:10;}
	.st1{fill-rule:evenodd;clip-rule:evenodd;fill:#FFA400;}
	.st2{fill-rule:evenodd;clip-rule:evenodd;fill:#FF414E;}
	.st3{fill-rule:evenodd;clip-rule:evenodd;fill:#80BC00;}
	.st4{fill:#333333;}
	.st5{fill:#FFFFFF;}
</style>
<line class="st0" x1="402.5" y1="424.2" x2="161.9" y2="183.6"/>
<g>
	<path class="st1" d="M412,19.1v79.3c41.7,0.8,80.6,13.2,113.4,34.3l43.4-66.8C523.4,36.9,469.7,19.8,412,19.1z"/>
	<path class="st2" d="M210.1,224.8c16.7-36.1,43-66.9,75.7-89l-43.1-66.4c-45.3,30.4-81.9,72.9-105,122.8L210.1,224.8z"/>
	<path class="st1" d="M291.5,132c32.9-20.8,71.8-33.1,113.6-33.6V19.1c-57.6,0.6-111.3,17.6-156.7,46.5L291.5,132z"/>
	<path class="st3" d="M574.6,69.7l-43.4,66.9c35.6,24.5,63.6,59.2,79.6,100l75.2-28.5C663.6,151.4,624.4,103.2,574.6,69.7z"/>
	<path class="st2" d="M207.2,231.1l-72.4-32.6c-15.8,36.3-24.6,76.4-24.6,118.6H190c0-0.3,0-0.5,0-0.8
		C190,286.1,196.1,257.3,207.2,231.1z"/>
	<path class="st3" d="M613.2,243c8.2,22.9,12.6,47.6,12.6,73.3c0,0.3,0,0.5,0,0.8h80.8c0-36.1-6.5-70.6-18.2-102.6L613.2,243z"/>
</g>
<line class="st0" x1="402.5" y1="424.5" x2="642.7" y2="184.3"/>
<g>
	<g>
		<path class="st4" d="M401.1,329.1c-1,0-1.9-0.4-2.6-1.2c-1.2-1.4-1.1-3.6,0.4-4.9l194.9-166c1.5-1.2,3.6-1.1,4.9,0.4
			c1.2,1.4,1.1,3.6-0.4,4.9l-194.9,166C402.7,328.8,401.9,329.1,401.1,329.1z"/>
		<g>
			<polygon class="st4" points="587,153.7 607.2,150 600.3,169.4 			"/>
		</g>
	</g>
</g>
<g>
	<circle class="st4" cx="408.4" cy="316.2" r="18.3"/>
	<path class="st5" d="M408.4,336.8c-11.4,0-20.6-9.3-20.6-20.6s9.3-20.6,20.6-20.6s20.6,9.3,20.6,20.6S419.8,336.8,408.4,336.8z
		 M408.4,300.2c-8.8,0-16,7.2-16,16s7.2,16,16,16c8.8,0,16-7.2,16-16S417.2,300.2,408.4,300.2z"/>
</g>
</svg>
